<?xml version="1.0" encoding="UTF-8" standalone="no"?>
<!DOCTYPE svg PUBLIC "-//W3C//DTD SVG 1.1//EN" "http://www.w3.org/Graphics/SVG/1.1/DTD/svg11.dtd">
<svg xmlns="http://www.w3.org/2000/svg" width="256px" height="512px" viewBox="0 0 12 22" image-rendering="pixelated">
<g id="abcdefg" style="fill-rule:evenodd; stroke:#000; stroke-width:0.25; stroke-opacity:1; stroke-linecap:butt; stroke-linejoin:miter;">
  <polygon id="a" points=" 0,     -1   3,    -1    9,    -1    12,    -1     9,    2   3,    2" fill="#FF0000"/>
  <polygon id="b" points=" 12,     -1   12,   2     12,   8     12,    11     9,    8   9,    2" fill="#FF0000"/>
  <polygon id="c" points=" 12,     11   12,   14    12,   20    12,    23    9,    20  9,    14" fill="#FF0000"/>
  <polygon id="d" points=" 12,     23  9,    23    3,    23    0,    23    3,    20  9,    20" fill="#FF0000"/>
  <polygon id="e" points=" 0,     23  0,   20    0,   14    0,    11     3,    14  3,    20" fill="#FF0000"/>
  <polygon id="f" points=" 0,     11   0,   8     0,   2     0,    -1     3,    2   3,    8" fill="#FF0000"/>
  <polygon id="g" points=" 0,     11   3,    9.5     9,    9.5     12,    11     9,    12.5  3,    12.5" fill="#FF0000"/>
</g>
</svg>