<?xml version="1.0" encoding="UTF-8" standalone="no"?>
<!-- Generator: Adobe Illustrator 13.0.3, SVG Export Plug-In . SVG Version: 6.00 Build 14948)  -->

<svg
   version="1.1"
   id="レイヤー_1"
   x="0px"
   y="0px"
   width="76px"
   height="76px"
   viewBox="0 0 76 76"
   enable-background="new 0 0 76 76"
   xml:space="preserve"
   sodipodi:docname="Minesweeper_2.svg"
   inkscape:version="1.1.2 (0a00cf5339, 2022-02-04)"
   xmlns:inkscape="http://www.inkscape.org/namespaces/inkscape"
   xmlns:sodipodi="http://sodipodi.sourceforge.net/DTD/sodipodi-0.dtd"
   xmlns="http://www.w3.org/2000/svg"
   xmlns:svg="http://www.w3.org/2000/svg"><defs
   id="defs12" /><sodipodi:namedview
   id="namedview10"
   pagecolor="#ffffff"
   bordercolor="#666666"
   borderopacity="1.0"
   inkscape:pageshadow="2"
   inkscape:pageopacity="0.0"
   inkscape:pagecheckerboard="0"
   showgrid="false"
   inkscape:zoom="10.960526"
   inkscape:cx="37.954382"
   inkscape:cy="37.954382"
   inkscape:window-width="1849"
   inkscape:window-height="1043"
   inkscape:window-x="71"
   inkscape:window-y="0"
   inkscape:window-maximized="1"
   inkscape:current-layer="レイヤー_1" />

<path
   fill="#008200"
   d="M51.256,26.134v-4.545c0-1.545-1.293-2.796-2.892-2.796H27.393c-1.593,0-2.892,1.251-2.892,2.796v4.545  H8.593v-5.942C8.593,14.011,13.778,9,20.163,9h35.433c6.388,0,11.569,5.011,11.569,11.191c0,4.064,1.287,8.448-2.521,11.417  c-2.649,2.062-5.948,3.822-8.757,5.743c-6.993,4.777-14.083,9.431-21.093,14.188c-0.91,0.621-3.707,3.276-4.87,3.276  c0.012,0,37.602,0,37.602,0V66H8.774c0-4.529-1.605-9.863,2.609-13.253c2.949-2.372,6.773-4.315,9.932-6.502  c8-5.557,16.259-10.779,24.287-16.306C46.188,29.535,51.256,26.874,51.256,26.134z"
   id="path7" />
</svg>
