<?xml version="1.0" encoding="UTF-8" standalone="no"?>
<!-- Generator: Adobe Illustrator 13.0.3, SVG Export Plug-In . SVG Version: 6.00 Build 14948)  -->

<svg
   version="1.1"
   id="レイヤー_1"
   x="0px"
   y="0px"
   width="76px"
   height="76px"
   viewBox="0 0 76 76"
   enable-background="new 0 0 76 76"
   xml:space="preserve"
   sodipodi:docname="Minesweeper_8.svg"
   inkscape:version="1.1.2 (0a00cf5339, 2022-02-04)"
   xmlns:inkscape="http://www.inkscape.org/namespaces/inkscape"
   xmlns:sodipodi="http://sodipodi.sourceforge.net/DTD/sodipodi-0.dtd"
   xmlns="http://www.w3.org/2000/svg"
   xmlns:svg="http://www.w3.org/2000/svg"><defs
   id="defs12" /><sodipodi:namedview
   id="namedview10"
   pagecolor="#ffffff"
   bordercolor="#666666"
   borderopacity="1.0"
   inkscape:pageshadow="2"
   inkscape:pageopacity="0.0"
   inkscape:pagecheckerboard="0"
   showgrid="false"
   inkscape:zoom="10.960526"
   inkscape:cx="37.954382"
   inkscape:cy="37.954382"
   inkscape:window-width="1849"
   inkscape:window-height="1043"
   inkscape:window-x="71"
   inkscape:window-y="0"
   inkscape:window-maximized="1"
   inkscape:current-layer="レイヤー_1" />

<path
   fill="#757575"
   d="M66.856,31.087c0,2.377-0.729,4.581-1.977,6.413c1.247,1.826,1.977,4.036,1.977,6.412V54.6  c0,6.29-5.104,11.4-11.4,11.4H20.544c-6.29,0-11.4-5.11-11.4-11.4V43.912c0-2.376,0.729-4.586,1.982-6.412  c-1.252-1.832-1.982-4.036-1.982-6.413V20.4c0-6.295,5.11-11.4,11.4-11.4h34.912c6.296,0,11.4,5.104,11.4,11.4V31.087z   M51.182,22.538c0-1.575-1.275-2.85-2.851-2.85H27.669c-1.57,0-2.851,1.275-2.851,2.85v6.413c0,1.569,1.28,2.85,2.851,2.85h20.662  c1.575,0,2.851-1.28,2.851-2.85V22.538z M51.182,46.05c0-1.575-1.275-2.85-2.851-2.85H27.669c-1.57,0-2.851,1.274-2.851,2.85v6.413  c0,1.569,1.28,2.85,2.851,2.85h20.662c1.575,0,2.851-1.28,2.851-2.85V46.05z"
   id="path7" />
</svg>
