<?xml version="1.0" encoding="UTF-8" standalone="no"?>
<!-- Generator: Adobe Illustrator 13.0.3, SVG Export Plug-In . SVG Version: 6.00 Build 14948)  -->

<svg
   version="1.1"
   id="レイヤー_1"
   x="0px"
   y="0px"
   width="76px"
   height="76px"
   viewBox="0 0 76 76"
   enable-background="new 0 0 76 76"
   xml:space="preserve"
   sodipodi:docname="Minesweeper_3.svg"
   inkscape:version="1.1.2 (0a00cf5339, 2022-02-04)"
   xmlns:inkscape="http://www.inkscape.org/namespaces/inkscape"
   xmlns:sodipodi="http://sodipodi.sourceforge.net/DTD/sodipodi-0.dtd"
   xmlns="http://www.w3.org/2000/svg"
   xmlns:svg="http://www.w3.org/2000/svg"><defs
   id="defs12" /><sodipodi:namedview
   id="namedview10"
   pagecolor="#ffffff"
   bordercolor="#666666"
   borderopacity="1.0"
   inkscape:pageshadow="2"
   inkscape:pageopacity="0.0"
   inkscape:pagecheckerboard="0"
   showgrid="false"
   inkscape:zoom="10.960526"
   inkscape:cx="37.954382"
   inkscape:cy="37.954382"
   inkscape:window-width="1849"
   inkscape:window-height="1043"
   inkscape:window-x="71"
   inkscape:window-y="0"
   inkscape:window-maximized="1"
   inkscape:current-layer="レイヤー_1" />

<path
   fill="#FF0000"
   d="M66.322,20.4c0-6.295-5.104-11.4-11.4-11.4H9.678v10.688H48.51c1.575,0,2.85,1.275,2.85,2.85v6.413  c0,1.569-1.274,2.85-2.85,2.85H26.778v12.825H48.51c1.575,0,2.85,1.274,2.85,2.85v6.413c0,1.569-1.274,2.85-2.85,2.85H9.678V66  h45.244c6.296,0,11.4-5.11,11.4-11.4V43.912c0-2.376-0.729-4.586-1.977-6.412c1.247-1.832,1.977-4.036,1.977-6.413V20.4z"
   id="path7" />
</svg>
